<?xml version='1.0' encoding='UTF-8'?>
<!DOCTYPE svg PUBLIC "-//W3C//DTD SVG 1.1//EN" "http://www.w3.org/Graphics/SVG/1.1/DTD/svg11.dtd">
<!-- Created with matplotlib (http://matplotlib.org/) -->
<svg xmlns="http://www.w3.org/2000/svg" xmlns:xlink="http://www.w3.org/1999/xlink" height="400px" version="1.1" viewBox="0 0 600 400" width="600px">
  <title>mplwp_airyai_asymptotic.svg</title>
  <desc>http://commons.wikimedia.org/wiki/File:mplwp_airyai_asymptotic.svg
Plot created with mplwp, the Matplotlib extension for Wikipedia plots.</desc>
  <defs>
    <style type="text/css">
*{stroke-linecap:butt;stroke-linejoin:round;}
  </style>
  </defs>
  <defs>
    <clipPath id="p33937a1e7f">
      <rect height="355.0" width="515.0" x="54.5" y="18.5"/>
    </clipPath>
  </defs>
  <g id="figure_1">
    <g id="patch_1">
      <path d="
M 0 400
L 600 400
L 600 0
L 0 0
z 
" style="fill:#ffffff;"/>
    </g>
    <g id="axes_1">
      <g id="patch_2">
        <path d="
M 54.5 373.5
L 569.5 373.5
L 569.5 18.5
L 54.5 18.5
z 
" style="fill:#ffffff;"/>
      </g>
      <g id="line2d_1">
        <path clip-path="url(#p33937a1e7f)" d="
M 54.5 294.377
L 63.152 258.61
L 65.624 249.605
L 67.684 242.896
L 69.538 237.594
L 71.186 233.538
L 72.6795 230.44
L 74.0185 228.156
L 75.2545 226.478
L 76.3875 225.311
L 77.4175 224.564
L 78.3445 224.15
L 79.2715 223.98
L 80.147 224.046
L 81.0225 224.328
L 81.9495 224.864
L 82.928 225.688
L 84.0095 226.904
L 85.194 228.594
L 86.4815 230.841
L 87.872 233.727
L 89.417 237.459
L 91.168 242.303
L 93.125 248.408
L 95.391 256.245
L 98.1205 266.528
L 102.086 282.432
L 108.111 306.545
L 110.995 317.127
L 113.365 324.995
L 115.424 331.082
L 117.227 335.749
L 118.875 339.426
L 120.369 342.239
L 121.759 344.394
L 122.995 345.922
L 124.128 346.995
L 125.21 347.724
L 126.24 348.147
L 127.218 348.304
L 128.145 348.232
L 129.124 347.925
L 130.102 347.383
L 131.132 346.561
L 132.265 345.365
L 133.501 343.72
L 134.84 341.55
L 136.282 338.781
L 137.878 335.222
L 139.629 330.766
L 141.587 325.167
L 143.852 317.977
L 146.479 308.873
L 149.878 296.237
L 160.539 255.994
L 163.268 246.87
L 165.637 239.706
L 167.697 234.15
L 169.603 229.633
L 171.302 226.15
L 172.899 223.372
L 174.341 221.29
L 175.679 219.731
L 176.916 218.616
L 178.1 217.843
L 179.181 217.391
L 180.263 217.182
L 181.293 217.209
L 182.323 217.454
L 183.405 217.944
L 184.537 218.71
L 185.722 219.782
L 187.01 221.255
L 188.4 223.195
L 189.894 225.667
L 191.542 228.84
L 193.344 232.809
L 195.353 237.797
L 197.567 243.913
L 200.091 251.557
L 203.078 261.342
L 207.043 275.159
L 217.549 312.158
L 220.742 322.378
L 223.472 330.391
L 225.892 336.829
L 228.107 342.1
L 230.115 346.325
L 231.969 349.729
L 233.72 352.488
L 235.316 354.606
L 236.81 356.237
L 238.252 357.488
L 239.591 358.361
L 240.879 358.939
L 242.115 359.254
L 243.351 359.334
L 244.587 359.181
L 245.822 358.799
L 247.11 358.16
L 248.449 357.24
L 249.891 355.965
L 251.385 354.343
L 253.033 352.21
L 254.784 349.567
L 256.689 346.272
L 258.749 342.254
L 261.015 337.332
L 263.538 331.297
L 266.371 323.924
L 269.667 314.696
L 273.736 302.603
L 280.225 282.507
L 287.538 260.059
L 291.864 247.492
L 295.52 237.527
L 298.816 229.17
L 301.855 222.057
L 304.687 215.974
L 307.365 210.73
L 309.94 206.166
L 312.412 202.228
L 314.781 198.86
L 317.099 195.945
L 319.365 193.448
L 321.579 191.335
L 323.742 189.57
L 325.905 188.086
L 328.068 186.863
L 330.283 185.864
L 332.6 185.065
L 335.021 184.468
L 337.647 184.051
L 340.737 183.795
L 345.526 183.658
L 349.647 183.457
L 352.067 183.12
L 354.024 182.625
L 355.672 181.981
L 357.166 181.157
L 358.505 180.161
L 359.741 178.965
L 360.925 177.499
L 362.007 175.81
L 363.037 173.801
L 364.067 171.28
L 365.045 168.251
L 365.972 164.595
L 366.796 160.441
L 367.569 155.422
L 368.29 149.259
L 368.959 141.496
L 369.526 132.331
L 370.041 120.206
L 370.452 105.308
L 370.813 83.4792
L 371.071 54.0732
L 371.273 -1
M 371.473 -1
L 371.586 86.9067
L 371.843 128.812
L 372.204 151.344
L 372.667 166.241
L 373.234 177.157
L 373.903 185.686
L 374.676 192.663
L 375.551 198.574
L 376.53 203.723
L 377.663 208.511
L 378.95 212.983
L 380.392 217.191
L 382.04 221.306
L 383.894 225.328
L 385.954 229.266
L 388.272 233.213
L 390.847 237.153
L 393.627 241.002
L 396.666 244.824
L 399.859 248.483
L 403.207 251.982
L 406.709 255.321
L 410.314 258.449
L 414.022 261.369
L 417.781 264.048
L 421.644 266.528
L 425.609 268.812
L 429.678 270.9
L 433.901 272.818
L 438.278 274.563
L 442.862 276.151
L 447.703 277.591
L 452.853 278.887
L 458.363 280.041
L 464.337 281.06
L 470.878 281.945
L 478.139 282.699
L 486.431 283.332
L 496.164 283.844
L 508.061 284.236
L 523.562 284.513
L 546.48 284.679
L 569.5 284.731" style="fill:none;stroke:#dd00aa;stroke-linecap:square;stroke-width:2.4;"/>
      </g>
      <g id="line2d_2">
        <path clip-path="url(#p33937a1e7f)" d="
M 54.5 294.105
L 62.9975 258.947
L 65.4695 249.909
L 67.581 243.007
L 69.435 237.69
L 71.083 233.621
L 72.5765 230.511
L 73.9155 228.216
L 75.1515 226.527
L 76.2845 225.351
L 77.3145 224.596
L 78.2415 224.174
L 79.1685 223.997
L 80.044 224.056
L 80.9195 224.333
L 81.8465 224.861
L 82.825 225.679
L 83.9065 226.888
L 85.091 228.571
L 86.3785 230.811
L 87.769 233.69
L 89.314 237.416
L 91.065 242.254
L 93.022 248.354
L 95.288 256.187
L 98.0175 266.469
L 101.983 282.375
L 108.06 306.696
L 110.892 317.088
L 113.262 324.96
L 115.321 331.051
L 117.124 335.721
L 118.772 339.4
L 120.266 342.215
L 121.656 344.37
L 122.892 345.898
L 124.025 346.971
L 125.107 347.699
L 126.137 348.121
L 127.115 348.276
L 128.042 348.203
L 129.02 347.894
L 129.999 347.349
L 131.029 346.525
L 132.162 345.326
L 133.398 343.677
L 134.737 341.502
L 136.179 338.727
L 137.776 335.161
L 139.527 330.697
L 141.484 325.089
L 143.75 317.888
L 146.428 308.588
L 149.878 295.73
L 160.23 256.589
L 163.011 247.245
L 165.38 240.042
L 167.491 234.318
L 169.397 229.783
L 171.096 226.283
L 172.692 223.49
L 174.135 221.396
L 175.474 219.825
L 176.709 218.701
L 177.894 217.919
L 178.975 217.461
L 180.057 217.246
L 181.087 217.267
L 182.117 217.507
L 183.198 217.993
L 184.332 218.755
L 185.516 219.825
L 186.804 221.296
L 188.194 223.235
L 189.688 225.708
L 191.336 228.882
L 193.138 232.856
L 195.147 237.851
L 197.361 243.976
L 199.885 251.633
L 202.872 261.436
L 206.837 275.278
L 217.24 311.975
L 220.433 322.218
L 223.162 330.248
L 225.583 336.699
L 227.797 341.977
L 229.806 346.206
L 231.66 349.609
L 233.36 352.29
L 234.956 354.413
L 236.45 356.047
L 237.84 357.258
L 239.179 358.14
L 240.467 358.724
L 241.702 359.041
L 242.887 359.124
L 244.072 358.99
L 245.308 358.624
L 246.595 357.998
L 247.934 357.09
L 249.325 355.873
L 250.818 354.267
L 252.415 352.217
L 254.166 349.591
L 256.019 346.402
L 258.079 342.4
L 260.294 337.601
L 262.766 331.699
L 265.547 324.465
L 268.74 315.52
L 272.706 303.71
L 278.68 285.122
L 286.662 260.404
L 290.937 247.904
L 294.542 238.026
L 297.786 229.772
L 300.722 222.893
L 303.503 216.933
L 306.077 211.924
L 308.55 207.593
L 310.867 203.965
L 313.133 200.825
L 315.296 198.206
L 317.356 196.05
L 319.365 194.264
L 321.322 192.817
L 323.227 191.681
L 325.081 190.828
L 326.935 190.214
L 328.789 189.834
L 330.643 189.676
L 332.549 189.738
L 334.505 190.026
L 336.514 190.545
L 338.625 191.321
L 340.892 192.397
L 343.261 193.771
L 345.836 195.526
L 348.617 197.695
L 351.707 200.392
L 355.209 203.755
L 359.277 207.983
L 364.376 213.623
L 372.873 223.413
L 381.989 233.805
L 387.808 240.101
L 392.906 245.294
L 397.593 249.758
L 402.074 253.724
L 406.451 257.303
L 410.726 260.512
L 414.949 263.408
L 419.172 266.037
L 423.446 268.438
L 427.772 270.615
L 432.201 272.595
L 436.784 274.398
L 441.523 276.023
L 446.466 277.483
L 451.72 278.8
L 457.281 279.964
L 463.307 280.994
L 469.899 281.892
L 477.212 282.658
L 485.504 283.299
L 495.186 283.817
L 506.979 284.217
L 522.275 284.5
L 544.626 284.673
L 569.5 284.731" style="fill:none;stroke:#0000cc;stroke-linecap:square;stroke-width:2.4;"/>
      </g>
      <g id="matplotlib.axis_1">
        <g id="xtick_1">
          <g id="line2d_3">
            <path clip-path="url(#p33937a1e7f)" d="
M 54.5 373.5
L 54.5 18.5" style="fill:none;stroke:#000000;stroke-dasharray:1.000000,3.000000;stroke-dashoffset:0.0;stroke-width:0.5;"/>
          </g>
          <g id="line2d_4">
            <defs>
              <path d="
M 0 0
L 0 -4" id="m56cb9a4f4c" style="stroke:#000000;stroke-width:1.25;"/>
            </defs>
            <g>
              <use style="stroke:#000000;stroke-width:1.25;" x="54.5" xlink:href="#m56cb9a4f4c" y="373.5"/>
            </g>
          </g>
          <g id="line2d_5">
            <defs>
              <path d="
M 0 0
L 0 4" id="m01134c304f" style="stroke:#000000;stroke-width:1.25;"/>
            </defs>
            <g>
              <use style="stroke:#000000;stroke-width:1.25;" x="54.5" xlink:href="#m01134c304f" y="18.5"/>
            </g>
          </g>
          <g id="text_1">
            <!-- −8 -->
            <defs>
              <path d="
M 31.7812 34.625
Q 24.75 34.625 20.7188 30.8594
Q 16.7031 27.0938 16.7031 20.5156
Q 16.7031 13.9219 20.7188 10.1562
Q 24.75 6.39062 31.7812 6.39062
Q 38.8125 6.39062 42.8594 10.1719
Q 46.9219 13.9688 46.9219 20.5156
Q 46.9219 27.0938 42.8906 30.8594
Q 38.875 34.625 31.7812 34.625
M 21.9219 38.8125
Q 15.5781 40.375 12.0312 44.7188
Q 8.5 49.0781 8.5 55.3281
Q 8.5 64.0625 14.7188 69.1406
Q 20.9531 74.2188 31.7812 74.2188
Q 42.6719 74.2188 48.875 69.1406
Q 55.0781 64.0625 55.0781 55.3281
Q 55.0781 49.0781 51.5312 44.7188
Q 48 40.375 41.7031 38.8125
Q 48.8281 37.1562 52.7969 32.3125
Q 56.7812 27.4844 56.7812 20.5156
Q 56.7812 9.90625 50.3125 4.23438
Q 43.8438 -1.42188 31.7812 -1.42188
Q 19.7344 -1.42188 13.25 4.23438
Q 6.78125 9.90625 6.78125 20.5156
Q 6.78125 27.4844 10.7812 32.3125
Q 14.7969 37.1562 21.9219 38.8125
M 18.3125 54.3906
Q 18.3125 48.7344 21.8438 45.5625
Q 25.3906 42.3906 31.7812 42.3906
Q 38.1406 42.3906 41.7188 45.5625
Q 45.3125 48.7344 45.3125 54.3906
Q 45.3125 60.0625 41.7188 63.2344
Q 38.1406 66.4062 31.7812 66.4062
Q 25.3906 66.4062 21.8438 63.2344
Q 18.3125 60.0625 18.3125 54.3906" id="DejaVuSans-38"/>
              <path d="
M 10.5938 35.5
L 73.1875 35.5
L 73.1875 27.2031
L 10.5938 27.2031
z 
" id="DejaVuSans-2212"/>
            </defs>
            <g transform="translate(44.10125 392.6575)scale(0.16 -0.16)">
              <use xlink:href="#DejaVuSans-2212"/>
              <use x="83.7890625" xlink:href="#DejaVuSans-38"/>
            </g>
          </g>
        </g>
        <g id="xtick_2">
          <g id="line2d_6">
            <path clip-path="url(#p33937a1e7f)" d="
M 133.731 373.5
L 133.731 18.5" style="fill:none;stroke:#000000;stroke-dasharray:1.000000,3.000000;stroke-dashoffset:0.0;stroke-width:0.5;"/>
          </g>
          <g id="line2d_7">
            <g>
              <use style="stroke:#000000;stroke-width:1.25;" x="133.730769231" xlink:href="#m56cb9a4f4c" y="373.5"/>
            </g>
          </g>
          <g id="line2d_8">
            <g>
              <use style="stroke:#000000;stroke-width:1.25;" x="133.730769231" xlink:href="#m01134c304f" y="18.5"/>
            </g>
          </g>
          <g id="text_2">
            <!-- −6 -->
            <defs>
              <path d="
M 33.0156 40.375
Q 26.375 40.375 22.4844 35.8281
Q 18.6094 31.2969 18.6094 23.3906
Q 18.6094 15.5312 22.4844 10.9531
Q 26.375 6.39062 33.0156 6.39062
Q 39.6562 6.39062 43.5312 10.9531
Q 47.4062 15.5312 47.4062 23.3906
Q 47.4062 31.2969 43.5312 35.8281
Q 39.6562 40.375 33.0156 40.375
M 52.5938 71.2969
L 52.5938 62.3125
Q 48.875 64.0625 45.0938 64.9844
Q 41.3125 65.9219 37.5938 65.9219
Q 27.8281 65.9219 22.6719 59.3281
Q 17.5312 52.7344 16.7969 39.4062
Q 19.6719 43.6562 24.0156 45.9219
Q 28.375 48.1875 33.5938 48.1875
Q 44.5781 48.1875 50.9531 41.5156
Q 57.3281 34.8594 57.3281 23.3906
Q 57.3281 12.1562 50.6875 5.35938
Q 44.0469 -1.42188 33.0156 -1.42188
Q 20.3594 -1.42188 13.6719 8.26562
Q 6.98438 17.9688 6.98438 36.375
Q 6.98438 53.6562 15.1875 63.9375
Q 23.3906 74.2188 37.2031 74.2188
Q 40.9219 74.2188 44.7031 73.4844
Q 48.4844 72.75 52.5938 71.2969" id="DejaVuSans-36"/>
            </defs>
            <g transform="translate(123.288269231 392.6575)scale(0.16 -0.16)">
              <use xlink:href="#DejaVuSans-2212"/>
              <use x="83.7890625" xlink:href="#DejaVuSans-36"/>
            </g>
          </g>
        </g>
        <g id="xtick_3">
          <g id="line2d_9">
            <path clip-path="url(#p33937a1e7f)" d="
M 212.962 373.5
L 212.962 18.5" style="fill:none;stroke:#000000;stroke-dasharray:1.000000,3.000000;stroke-dashoffset:0.0;stroke-width:0.5;"/>
          </g>
          <g id="line2d_10">
            <g>
              <use style="stroke:#000000;stroke-width:1.25;" x="212.961538462" xlink:href="#m56cb9a4f4c" y="373.5"/>
            </g>
          </g>
          <g id="line2d_11">
            <g>
              <use style="stroke:#000000;stroke-width:1.25;" x="212.961538462" xlink:href="#m01134c304f" y="18.5"/>
            </g>
          </g>
          <g id="text_3">
            <!-- −4 -->
            <defs>
              <path d="
M 37.7969 64.3125
L 12.8906 25.3906
L 37.7969 25.3906
z 

M 35.2031 72.9062
L 47.6094 72.9062
L 47.6094 25.3906
L 58.0156 25.3906
L 58.0156 17.1875
L 47.6094 17.1875
L 47.6094 0
L 37.7969 0
L 37.7969 17.1875
L 4.89062 17.1875
L 4.89062 26.7031
z 
" id="DejaVuSans-34"/>
            </defs>
            <g transform="translate(202.464038462 392.6575)scale(0.16 -0.16)">
              <use xlink:href="#DejaVuSans-2212"/>
              <use x="83.7890625" xlink:href="#DejaVuSans-34"/>
            </g>
          </g>
        </g>
        <g id="xtick_4">
          <g id="line2d_12">
            <path clip-path="url(#p33937a1e7f)" d="
M 292.192 373.5
L 292.192 18.5" style="fill:none;stroke:#000000;stroke-dasharray:1.000000,3.000000;stroke-dashoffset:0.0;stroke-width:0.5;"/>
          </g>
          <g id="line2d_13">
            <g>
              <use style="stroke:#000000;stroke-width:1.25;" x="292.192307692" xlink:href="#m56cb9a4f4c" y="373.5"/>
            </g>
          </g>
          <g id="line2d_14">
            <g>
              <use style="stroke:#000000;stroke-width:1.25;" x="292.192307692" xlink:href="#m01134c304f" y="18.5"/>
            </g>
          </g>
          <g id="text_4">
            <!-- −2 -->
            <defs>
              <path d="
M 19.1875 8.29688
L 53.6094 8.29688
L 53.6094 0
L 7.32812 0
L 7.32812 8.29688
Q 12.9375 14.1094 22.625 23.8906
Q 32.3281 33.6875 34.8125 36.5312
Q 39.5469 41.8438 41.4219 45.5312
Q 43.3125 49.2188 43.3125 52.7812
Q 43.3125 58.5938 39.2344 62.25
Q 35.1562 65.9219 28.6094 65.9219
Q 23.9688 65.9219 18.8125 64.3125
Q 13.6719 62.7031 7.8125 59.4219
L 7.8125 69.3906
Q 13.7656 71.7812 18.9375 73
Q 24.125 74.2188 28.4219 74.2188
Q 39.75 74.2188 46.4844 68.5469
Q 53.2188 62.8906 53.2188 53.4219
Q 53.2188 48.9219 51.5312 44.8906
Q 49.8594 40.875 45.4062 35.4062
Q 44.1875 33.9844 37.6406 27.2188
Q 31.1094 20.4531 19.1875 8.29688" id="DejaVuSans-32"/>
            </defs>
            <g transform="translate(282.047307692 392.6575)scale(0.16 -0.16)">
              <use xlink:href="#DejaVuSans-2212"/>
              <use x="83.7890625" xlink:href="#DejaVuSans-32"/>
            </g>
          </g>
        </g>
        <g id="xtick_5">
          <g id="line2d_15">
            <path clip-path="url(#p33937a1e7f)" d="
M 371.423 373.5
L 371.423 18.5" style="fill:none;stroke:#000000;stroke-dasharray:3.000000,1.000000;stroke-dashoffset:0.0;stroke-width:0.5;"/>
          </g>
          <g id="line2d_16">
            <g>
              <use style="stroke:#000000;stroke-width:1.25;" x="371.423076923" xlink:href="#m56cb9a4f4c" y="373.5"/>
            </g>
          </g>
          <g id="line2d_17">
            <g>
              <use style="stroke:#000000;stroke-width:1.25;" x="371.423076923" xlink:href="#m01134c304f" y="18.5"/>
            </g>
          </g>
          <g id="text_5">
            <!-- 0 -->
            <defs>
              <path d="
M 31.7812 66.4062
Q 24.1719 66.4062 20.3281 58.9062
Q 16.5 51.4219 16.5 36.375
Q 16.5 21.3906 20.3281 13.8906
Q 24.1719 6.39062 31.7812 6.39062
Q 39.4531 6.39062 43.2812 13.8906
Q 47.125 21.3906 47.125 36.375
Q 47.125 51.4219 43.2812 58.9062
Q 39.4531 66.4062 31.7812 66.4062
M 31.7812 74.2188
Q 44.0469 74.2188 50.5156 64.5156
Q 56.9844 54.8281 56.9844 36.375
Q 56.9844 17.9688 50.5156 8.26562
Q 44.0469 -1.42188 31.7812 -1.42188
Q 19.5312 -1.42188 13.0625 8.26562
Q 6.59375 17.9688 6.59375 36.375
Q 6.59375 54.8281 13.0625 64.5156
Q 19.5312 74.2188 31.7812 74.2188" id="DejaVuSans-30"/>
            </defs>
            <g transform="translate(367.391826923 392.6575)scale(0.16 -0.16)">
              <use xlink:href="#DejaVuSans-30"/>
            </g>
          </g>
        </g>
        <g id="xtick_6">
          <g id="line2d_18">
            <path clip-path="url(#p33937a1e7f)" d="
M 450.654 373.5
L 450.654 18.5" style="fill:none;stroke:#000000;stroke-dasharray:1.000000,3.000000;stroke-dashoffset:0.0;stroke-width:0.5;"/>
          </g>
          <g id="line2d_19">
            <g>
              <use style="stroke:#000000;stroke-width:1.25;" x="450.653846154" xlink:href="#m56cb9a4f4c" y="373.5"/>
            </g>
          </g>
          <g id="line2d_20">
            <g>
              <use style="stroke:#000000;stroke-width:1.25;" x="450.653846154" xlink:href="#m01134c304f" y="18.5"/>
            </g>
          </g>
          <g id="text_6">
            <!-- 2 -->
            <g transform="translate(446.951346154 392.6575)scale(0.16 -0.16)">
              <use xlink:href="#DejaVuSans-32"/>
            </g>
          </g>
        </g>
        <g id="xtick_7">
          <g id="line2d_21">
            <path clip-path="url(#p33937a1e7f)" d="
M 529.885 373.5
L 529.885 18.5" style="fill:none;stroke:#000000;stroke-dasharray:1.000000,3.000000;stroke-dashoffset:0.0;stroke-width:0.5;"/>
          </g>
          <g id="line2d_22">
            <g>
              <use style="stroke:#000000;stroke-width:1.25;" x="529.884615385" xlink:href="#m56cb9a4f4c" y="373.5"/>
            </g>
          </g>
          <g id="line2d_23">
            <g>
              <use style="stroke:#000000;stroke-width:1.25;" x="529.884615385" xlink:href="#m01134c304f" y="18.5"/>
            </g>
          </g>
          <g id="text_7">
            <!-- 4 -->
            <g transform="translate(525.634615385 392.6575)scale(0.16 -0.16)">
              <use xlink:href="#DejaVuSans-34"/>
            </g>
          </g>
        </g>
      </g>
      <g id="matplotlib.axis_2">
        <g id="ytick_1">
          <g id="line2d_24">
            <path clip-path="url(#p33937a1e7f)" d="
M 54.5 373.5
L 569.5 373.5" style="fill:none;stroke:#000000;stroke-dasharray:1.000000,3.000000;stroke-dashoffset:0.0;stroke-width:0.5;"/>
          </g>
          <g id="line2d_25">
            <defs>
              <path d="
M 0 0
L 4 0" id="m86ea02120d" style="stroke:#000000;stroke-width:1.25;"/>
            </defs>
            <g>
              <use style="stroke:#000000;stroke-width:1.25;" x="54.5" xlink:href="#m86ea02120d" y="373.5"/>
            </g>
          </g>
          <g id="line2d_26">
            <defs>
              <path d="
M 0 0
L -4 0" id="m08e0baaaa9" style="stroke:#000000;stroke-width:1.25;"/>
            </defs>
            <g>
              <use style="stroke:#000000;stroke-width:1.25;" x="569.5" xlink:href="#m08e0baaaa9" y="373.5"/>
            </g>
          </g>
          <g id="text_8">
            <!-- −0.50 -->
            <defs>
              <path d="
M 10.7969 72.9062
L 49.5156 72.9062
L 49.5156 64.5938
L 19.8281 64.5938
L 19.8281 46.7344
Q 21.9688 47.4688 24.1094 47.8281
Q 26.2656 48.1875 28.4219 48.1875
Q 40.625 48.1875 47.75 41.5
Q 54.8906 34.8125 54.8906 23.3906
Q 54.8906 11.625 47.5625 5.09375
Q 40.2344 -1.42188 26.9062 -1.42188
Q 22.3125 -1.42188 17.5469 -0.640625
Q 12.7969 0.140625 7.71875 1.70312
L 7.71875 11.625
Q 12.1094 9.23438 16.7969 8.0625
Q 21.4844 6.89062 26.7031 6.89062
Q 35.1562 6.89062 40.0781 11.3281
Q 45.0156 15.7656 45.0156 23.3906
Q 45.0156 31 40.0781 35.4375
Q 35.1562 39.8906 26.7031 39.8906
Q 22.75 39.8906 18.8125 39.0156
Q 14.8906 38.1406 10.7969 36.2812
z 
" id="DejaVuSans-35"/>
              <path d="
M 10.6875 12.4062
L 21 12.4062
L 21 0
L 10.6875 0
z 
" id="DejaVuSans-2e"/>
            </defs>
            <g transform="translate(1.225 377.915)scale(0.16 -0.16)">
              <use xlink:href="#DejaVuSans-2212"/>
              <use x="83.7890625" xlink:href="#DejaVuSans-30"/>
              <use x="147.412109375" xlink:href="#DejaVuSans-2e"/>
              <use x="179.19921875" xlink:href="#DejaVuSans-35"/>
              <use x="242.822265625" xlink:href="#DejaVuSans-30"/>
            </g>
          </g>
        </g>
        <g id="ytick_2">
          <g id="line2d_27">
            <path clip-path="url(#p33937a1e7f)" d="
M 54.5 329.125
L 569.5 329.125" style="fill:none;stroke:#000000;stroke-dasharray:1.000000,3.000000;stroke-dashoffset:0.0;stroke-width:0.5;"/>
          </g>
          <g id="line2d_28">
            <g>
              <use style="stroke:#000000;stroke-width:1.25;" x="54.5" xlink:href="#m86ea02120d" y="329.125"/>
            </g>
          </g>
          <g id="line2d_29">
            <g>
              <use style="stroke:#000000;stroke-width:1.25;" x="569.5" xlink:href="#m08e0baaaa9" y="329.125"/>
            </g>
          </g>
          <g id="text_9">
            <!-- −0.25 -->
            <g transform="translate(1.56 333.54)scale(0.16 -0.16)">
              <use xlink:href="#DejaVuSans-2212"/>
              <use x="83.7890625" xlink:href="#DejaVuSans-30"/>
              <use x="147.412109375" xlink:href="#DejaVuSans-2e"/>
              <use x="179.19921875" xlink:href="#DejaVuSans-32"/>
              <use x="242.822265625" xlink:href="#DejaVuSans-35"/>
            </g>
          </g>
        </g>
        <g id="ytick_3">
          <g id="line2d_30">
            <path clip-path="url(#p33937a1e7f)" d="
M 54.5 284.75
L 569.5 284.75" style="fill:none;stroke:#000000;stroke-dasharray:3.000000,1.000000;stroke-dashoffset:0.0;stroke-width:0.5;"/>
          </g>
          <g id="line2d_31">
            <g>
              <use style="stroke:#000000;stroke-width:1.25;" x="54.5" xlink:href="#m86ea02120d" y="284.75"/>
            </g>
          </g>
          <g id="line2d_32">
            <g>
              <use style="stroke:#000000;stroke-width:1.25;" x="569.5" xlink:href="#m08e0baaaa9" y="284.75"/>
            </g>
          </g>
          <g id="text_10">
            <!-- 0.00 -->
            <g transform="translate(13.9925 289.165)scale(0.16 -0.16)">
              <use xlink:href="#DejaVuSans-30"/>
              <use x="63.623046875" xlink:href="#DejaVuSans-2e"/>
              <use x="95.41015625" xlink:href="#DejaVuSans-30"/>
              <use x="159.033203125" xlink:href="#DejaVuSans-30"/>
            </g>
          </g>
        </g>
        <g id="ytick_4">
          <g id="line2d_33">
            <path clip-path="url(#p33937a1e7f)" d="
M 54.5 240.375
L 569.5 240.375" style="fill:none;stroke:#000000;stroke-dasharray:1.000000,3.000000;stroke-dashoffset:0.0;stroke-width:0.5;"/>
          </g>
          <g id="line2d_34">
            <g>
              <use style="stroke:#000000;stroke-width:1.25;" x="54.5" xlink:href="#m86ea02120d" y="240.375"/>
            </g>
          </g>
          <g id="line2d_35">
            <g>
              <use style="stroke:#000000;stroke-width:1.25;" x="569.5" xlink:href="#m08e0baaaa9" y="240.375"/>
            </g>
          </g>
          <g id="text_11">
            <!-- 0.25 -->
            <g transform="translate(14.3275 244.79)scale(0.16 -0.16)">
              <use xlink:href="#DejaVuSans-30"/>
              <use x="63.623046875" xlink:href="#DejaVuSans-2e"/>
              <use x="95.41015625" xlink:href="#DejaVuSans-32"/>
              <use x="159.033203125" xlink:href="#DejaVuSans-35"/>
            </g>
          </g>
        </g>
        <g id="ytick_5">
          <g id="line2d_36">
            <path clip-path="url(#p33937a1e7f)" d="
M 54.5 196
L 569.5 196" style="fill:none;stroke:#000000;stroke-dasharray:1.000000,3.000000;stroke-dashoffset:0.0;stroke-width:0.5;"/>
          </g>
          <g id="line2d_37">
            <g>
              <use style="stroke:#000000;stroke-width:1.25;" x="54.5" xlink:href="#m86ea02120d" y="196.0"/>
            </g>
          </g>
          <g id="line2d_38">
            <g>
              <use style="stroke:#000000;stroke-width:1.25;" x="569.5" xlink:href="#m08e0baaaa9" y="196.0"/>
            </g>
          </g>
          <g id="text_12">
            <!-- 0.50 -->
            <g transform="translate(13.9925 200.415)scale(0.16 -0.16)">
              <use xlink:href="#DejaVuSans-30"/>
              <use x="63.623046875" xlink:href="#DejaVuSans-2e"/>
              <use x="95.41015625" xlink:href="#DejaVuSans-35"/>
              <use x="159.033203125" xlink:href="#DejaVuSans-30"/>
            </g>
          </g>
        </g>
        <g id="ytick_6">
          <g id="line2d_39">
            <path clip-path="url(#p33937a1e7f)" d="
M 54.5 151.625
L 569.5 151.625" style="fill:none;stroke:#000000;stroke-dasharray:1.000000,3.000000;stroke-dashoffset:0.0;stroke-width:0.5;"/>
          </g>
          <g id="line2d_40">
            <g>
              <use style="stroke:#000000;stroke-width:1.25;" x="54.5" xlink:href="#m86ea02120d" y="151.625"/>
            </g>
          </g>
          <g id="line2d_41">
            <g>
              <use style="stroke:#000000;stroke-width:1.25;" x="569.5" xlink:href="#m08e0baaaa9" y="151.625"/>
            </g>
          </g>
          <g id="text_13">
            <!-- 0.75 -->
            <defs>
              <path d="
M 8.20312 72.9062
L 55.0781 72.9062
L 55.0781 68.7031
L 28.6094 0
L 18.3125 0
L 43.2188 64.5938
L 8.20312 64.5938
z 
" id="DejaVuSans-37"/>
            </defs>
            <g transform="translate(14.3275 156.04)scale(0.16 -0.16)">
              <use xlink:href="#DejaVuSans-30"/>
              <use x="63.623046875" xlink:href="#DejaVuSans-2e"/>
              <use x="95.41015625" xlink:href="#DejaVuSans-37"/>
              <use x="159.033203125" xlink:href="#DejaVuSans-35"/>
            </g>
          </g>
        </g>
        <g id="ytick_7">
          <g id="line2d_42">
            <path clip-path="url(#p33937a1e7f)" d="
M 54.5 107.25
L 569.5 107.25" style="fill:none;stroke:#000000;stroke-dasharray:1.000000,3.000000;stroke-dashoffset:0.0;stroke-width:0.5;"/>
          </g>
          <g id="line2d_43">
            <g>
              <use style="stroke:#000000;stroke-width:1.25;" x="54.5" xlink:href="#m86ea02120d" y="107.25"/>
            </g>
          </g>
          <g id="line2d_44">
            <g>
              <use style="stroke:#000000;stroke-width:1.25;" x="569.5" xlink:href="#m08e0baaaa9" y="107.25"/>
            </g>
          </g>
          <g id="text_14">
            <!-- 1.00 -->
            <defs>
              <path d="
M 12.4062 8.29688
L 28.5156 8.29688
L 28.5156 63.9219
L 10.9844 60.4062
L 10.9844 69.3906
L 28.4219 72.9062
L 38.2812 72.9062
L 38.2812 8.29688
L 54.3906 8.29688
L 54.3906 0
L 12.4062 0
z 
" id="DejaVuSans-31"/>
            </defs>
            <g transform="translate(14.695 111.665)scale(0.16 -0.16)">
              <use xlink:href="#DejaVuSans-31"/>
              <use x="63.623046875" xlink:href="#DejaVuSans-2e"/>
              <use x="95.41015625" xlink:href="#DejaVuSans-30"/>
              <use x="159.033203125" xlink:href="#DejaVuSans-30"/>
            </g>
          </g>
        </g>
        <g id="ytick_8">
          <g id="line2d_45">
            <path clip-path="url(#p33937a1e7f)" d="
M 54.5 62.875
L 569.5 62.875" style="fill:none;stroke:#000000;stroke-dasharray:1.000000,3.000000;stroke-dashoffset:0.0;stroke-width:0.5;"/>
          </g>
          <g id="line2d_46">
            <g>
              <use style="stroke:#000000;stroke-width:1.25;" x="54.5" xlink:href="#m86ea02120d" y="62.875"/>
            </g>
          </g>
          <g id="line2d_47">
            <g>
              <use style="stroke:#000000;stroke-width:1.25;" x="569.5" xlink:href="#m08e0baaaa9" y="62.875"/>
            </g>
          </g>
          <g id="text_15">
            <!-- 1.25 -->
            <g transform="translate(15.03 67.29)scale(0.16 -0.16)">
              <use xlink:href="#DejaVuSans-31"/>
              <use x="63.623046875" xlink:href="#DejaVuSans-2e"/>
              <use x="95.41015625" xlink:href="#DejaVuSans-32"/>
              <use x="159.033203125" xlink:href="#DejaVuSans-35"/>
            </g>
          </g>
        </g>
        <g id="ytick_9">
          <g id="line2d_48">
            <path clip-path="url(#p33937a1e7f)" d="
M 54.5 18.5
L 569.5 18.5" style="fill:none;stroke:#000000;stroke-dasharray:1.000000,3.000000;stroke-dashoffset:0.0;stroke-width:0.5;"/>
          </g>
          <g id="line2d_49">
            <g>
              <use style="stroke:#000000;stroke-width:1.25;" x="54.5" xlink:href="#m86ea02120d" y="18.5"/>
            </g>
          </g>
          <g id="line2d_50">
            <g>
              <use style="stroke:#000000;stroke-width:1.25;" x="569.5" xlink:href="#m08e0baaaa9" y="18.5"/>
            </g>
          </g>
          <g id="text_16">
            <!-- 1.50 -->
            <g transform="translate(14.695 22.915)scale(0.16 -0.16)">
              <use xlink:href="#DejaVuSans-31"/>
              <use x="63.623046875" xlink:href="#DejaVuSans-2e"/>
              <use x="95.41015625" xlink:href="#DejaVuSans-35"/>
              <use x="159.033203125" xlink:href="#DejaVuSans-30"/>
            </g>
          </g>
        </g>
      </g>
      <g id="patch_3">
        <path d="
M 54.5 18.5
L 569.5 18.5" style="fill:none;stroke:#000000;stroke-width:1.25;"/>
      </g>
      <g id="patch_4">
        <path d="
M 569.5 373.5
L 569.5 18.5" style="fill:none;stroke:#000000;stroke-width:1.25;"/>
      </g>
      <g id="patch_5">
        <path d="
M 54.5 373.5
L 569.5 373.5" style="fill:none;stroke:#000000;stroke-width:1.25;"/>
      </g>
      <g id="patch_6">
        <path d="
M 54.5 373.5
L 54.5 18.5" style="fill:none;stroke:#000000;stroke-width:1.25;"/>
      </g>
      <g id="legend_1">
        <g id="patch_7">
          <path d="
M 83.3 109.424
L 288.335 109.424
L 288.335 47.3
L 83.3 47.3
L 83.3 109.424
z 
" style="fill:#ffffff;opacity:0.9;stroke:#000000;"/>
        </g>
        <g id="line2d_51">
          <path d="
M 96.74 62.849
L 123.62 62.849" style="fill:none;stroke:#0000cc;stroke-linecap:square;stroke-width:2.4;"/>
        </g>
        <g id="line2d_52"/>
        <g id="text_17">
          <!-- Ai -->
          <defs>
            <path d="
M 34.1875 63.1875
L 20.7969 26.9062
L 47.6094 26.9062
z 

M 28.6094 72.9062
L 39.7969 72.9062
L 67.5781 0
L 57.3281 0
L 50.6875 18.7031
L 17.8281 18.7031
L 11.1875 0
L 0.78125 0
z 
" id="DejaVuSans-41"/>
            <path d="
M 9.42188 54.6875
L 18.4062 54.6875
L 18.4062 0
L 9.42188 0
z 

M 9.42188 75.9844
L 18.4062 75.9844
L 18.4062 64.5938
L 9.42188 64.5938
z 
" id="DejaVuSans-69"/>
          </defs>
          <g transform="translate(144.74 69.569)scale(0.192 -0.192)">
            <use xlink:href="#DejaVuSans-41"/>
            <use x="68.408203125" xlink:href="#DejaVuSans-69"/>
          </g>
        </g>
        <g id="line2d_53">
          <path d="
M 96.74 91.031
L 123.62 91.031" style="fill:none;stroke:#dd00aa;stroke-linecap:square;stroke-width:2.4;"/>
        </g>
        <g id="line2d_54"/>
        <g id="text_18">
          <!-- approximation -->
          <defs>
            <path d="
M 30.6094 48.3906
Q 23.3906 48.3906 19.1875 42.75
Q 14.9844 37.1094 14.9844 27.2969
Q 14.9844 17.4844 19.1562 11.8438
Q 23.3438 6.20312 30.6094 6.20312
Q 37.7969 6.20312 41.9844 11.8594
Q 46.1875 17.5312 46.1875 27.2969
Q 46.1875 37.0156 41.9844 42.7031
Q 37.7969 48.3906 30.6094 48.3906
M 30.6094 56
Q 42.3281 56 49.0156 48.375
Q 55.7188 40.7656 55.7188 27.2969
Q 55.7188 13.875 49.0156 6.21875
Q 42.3281 -1.42188 30.6094 -1.42188
Q 18.8438 -1.42188 12.1719 6.21875
Q 5.51562 13.875 5.51562 27.2969
Q 5.51562 40.7656 12.1719 48.375
Q 18.8438 56 30.6094 56" id="DejaVuSans-6f"/>
            <path d="
M 52 44.1875
Q 55.375 50.25 60.0625 53.125
Q 64.75 56 71.0938 56
Q 79.6406 56 84.2812 50.0156
Q 88.9219 44.0469 88.9219 33.0156
L 88.9219 0
L 79.8906 0
L 79.8906 32.7188
Q 79.8906 40.5781 77.0938 44.375
Q 74.3125 48.1875 68.6094 48.1875
Q 61.625 48.1875 57.5625 43.5469
Q 53.5156 38.9219 53.5156 30.9062
L 53.5156 0
L 44.4844 0
L 44.4844 32.7188
Q 44.4844 40.625 41.7031 44.4062
Q 38.9219 48.1875 33.1094 48.1875
Q 26.2188 48.1875 22.1562 43.5312
Q 18.1094 38.875 18.1094 30.9062
L 18.1094 0
L 9.07812 0
L 9.07812 54.6875
L 18.1094 54.6875
L 18.1094 46.1875
Q 21.1875 51.2188 25.4844 53.6094
Q 29.7812 56 35.6875 56
Q 41.6562 56 45.8281 52.9688
Q 50 49.9531 52 44.1875" id="DejaVuSans-6d"/>
            <path d="
M 54.8906 33.0156
L 54.8906 0
L 45.9062 0
L 45.9062 32.7188
Q 45.9062 40.4844 42.875 44.3281
Q 39.8438 48.1875 33.7969 48.1875
Q 26.5156 48.1875 22.3125 43.5469
Q 18.1094 38.9219 18.1094 30.9062
L 18.1094 0
L 9.07812 0
L 9.07812 54.6875
L 18.1094 54.6875
L 18.1094 46.1875
Q 21.3438 51.125 25.7031 53.5625
Q 30.0781 56 35.7969 56
Q 45.2188 56 50.0469 50.1719
Q 54.8906 44.3438 54.8906 33.0156" id="DejaVuSans-6e"/>
            <path d="
M 54.8906 54.6875
L 35.1094 28.0781
L 55.9062 0
L 45.3125 0
L 29.3906 21.4844
L 13.4844 0
L 2.875 0
L 24.125 28.6094
L 4.6875 54.6875
L 15.2812 54.6875
L 29.7812 35.2031
L 44.2812 54.6875
z 
" id="DejaVuSans-78"/>
            <path d="
M 18.3125 70.2188
L 18.3125 54.6875
L 36.8125 54.6875
L 36.8125 47.7031
L 18.3125 47.7031
L 18.3125 18.0156
Q 18.3125 11.3281 20.1406 9.42188
Q 21.9688 7.51562 27.5938 7.51562
L 36.8125 7.51562
L 36.8125 0
L 27.5938 0
Q 17.1875 0 13.2344 3.875
Q 9.28125 7.76562 9.28125 18.0156
L 9.28125 47.7031
L 2.6875 47.7031
L 2.6875 54.6875
L 9.28125 54.6875
L 9.28125 70.2188
z 
" id="DejaVuSans-74"/>
            <path d="
M 34.2812 27.4844
Q 23.3906 27.4844 19.1875 25
Q 14.9844 22.5156 14.9844 16.5
Q 14.9844 11.7188 18.1406 8.90625
Q 21.2969 6.10938 26.7031 6.10938
Q 34.1875 6.10938 38.7031 11.4062
Q 43.2188 16.7031 43.2188 25.4844
L 43.2188 27.4844
z 

M 52.2031 31.2031
L 52.2031 0
L 43.2188 0
L 43.2188 8.29688
Q 40.1406 3.32812 35.5469 0.953125
Q 30.9531 -1.42188 24.3125 -1.42188
Q 15.9219 -1.42188 10.9531 3.29688
Q 6 8.01562 6 15.9219
Q 6 25.1406 12.1719 29.8281
Q 18.3594 34.5156 30.6094 34.5156
L 43.2188 34.5156
L 43.2188 35.4062
Q 43.2188 41.6094 39.1406 45
Q 35.0625 48.3906 27.6875 48.3906
Q 23 48.3906 18.5469 47.2656
Q 14.1094 46.1406 10.0156 43.8906
L 10.0156 52.2031
Q 14.9375 54.1094 19.5781 55.0469
Q 24.2188 56 28.6094 56
Q 40.4844 56 46.3438 49.8438
Q 52.2031 43.7031 52.2031 31.2031" id="DejaVuSans-61"/>
            <path d="
M 18.1094 8.20312
L 18.1094 -20.7969
L 9.07812 -20.7969
L 9.07812 54.6875
L 18.1094 54.6875
L 18.1094 46.3906
Q 20.9531 51.2656 25.2656 53.625
Q 29.5938 56 35.5938 56
Q 45.5625 56 51.7812 48.0938
Q 58.0156 40.1875 58.0156 27.2969
Q 58.0156 14.4062 51.7812 6.48438
Q 45.5625 -1.42188 35.5938 -1.42188
Q 29.5938 -1.42188 25.2656 0.953125
Q 20.9531 3.32812 18.1094 8.20312
M 48.6875 27.2969
Q 48.6875 37.2031 44.6094 42.8438
Q 40.5312 48.4844 33.4062 48.4844
Q 26.2656 48.4844 22.1875 42.8438
Q 18.1094 37.2031 18.1094 27.2969
Q 18.1094 17.3906 22.1875 11.75
Q 26.2656 6.10938 33.4062 6.10938
Q 40.5312 6.10938 44.6094 11.75
Q 48.6875 17.3906 48.6875 27.2969" id="DejaVuSans-70"/>
            <path d="
M 41.1094 46.2969
Q 39.5938 47.1719 37.8125 47.5781
Q 36.0312 48 33.8906 48
Q 26.2656 48 22.1875 43.0469
Q 18.1094 38.0938 18.1094 28.8125
L 18.1094 0
L 9.07812 0
L 9.07812 54.6875
L 18.1094 54.6875
L 18.1094 46.1875
Q 20.9531 51.1719 25.4844 53.5781
Q 30.0312 56 36.5312 56
Q 37.4531 56 38.5781 55.875
Q 39.7031 55.7656 41.0625 55.5156
z 
" id="DejaVuSans-72"/>
          </defs>
          <g transform="translate(144.74 97.751)scale(0.192 -0.192)">
            <use xlink:href="#DejaVuSans-61"/>
            <use x="61.279296875" xlink:href="#DejaVuSans-70"/>
            <use x="124.755859375" xlink:href="#DejaVuSans-70"/>
            <use x="188.232421875" xlink:href="#DejaVuSans-72"/>
            <use x="227.095703125" xlink:href="#DejaVuSans-6f"/>
            <use x="285.15234375" xlink:href="#DejaVuSans-78"/>
            <use x="344.33203125" xlink:href="#DejaVuSans-69"/>
            <use x="372.115234375" xlink:href="#DejaVuSans-6d"/>
            <use x="469.52734375" xlink:href="#DejaVuSans-61"/>
            <use x="530.806640625" xlink:href="#DejaVuSans-74"/>
            <use x="570.015625" xlink:href="#DejaVuSans-69"/>
            <use x="597.798828125" xlink:href="#DejaVuSans-6f"/>
            <use x="658.98046875" xlink:href="#DejaVuSans-6e"/>
          </g>
        </g>
      </g>
    </g>
  </g>
</svg>
